PathFileType	4	(X/Y/Z)	Patient4_TMGait_0pt7_01_right_31.trc.trc
DataRate	CameraRate	NumFrames	NumMarkers	Units	OrigDataRate	OrigDataStartFrame	OrigNumFrames
86.419753086420	86.419753086420	6	33	mm	86.419753086420	36	       141
Frame#	Time	Sacral			L.Shoulder			Chest			R.Shoulder			Neck			R.ASIS			L.ASIS			R.Thigh.Superior			R.Thigh.Lateral			R.Thigh.Inferior			R.Patella			L.Thigh.Superior			L.Thigh.Lateral			L.Thigh.Inferior			L.Patella			L.Shank.Superior			L.Shank.Lateral			L.Shank.Inferior			R.Shank.Superior			R.Shank.Lateral			R.Shank.Inferior			R.Heel			R.Midfoot.Superior			R.Midfoot.Lateral			R.Toe			L.Heel			L.Midfoot.Lateral			L.Midfoot.Superior			L.Toe			L.Elbow			L.Wrist			R.Elbow			R.Wrist			
		X1	Y1	Z1	X2	Y2	Z2	X3	Y3	Z3	X4	Y4	Z4	X5	Y5	Z5	X6	Y6	Z6	X7	Y7	Z7	X8	Y8	Z8	X9	Y9	Z9	X10	Y10	Z10	X11	Y11	Z11	X12	Y12	Z12	X13	Y13	Z13	X14	Y14	Z14	X15	Y15	Z15	X16	Y16	Z16	X17	Y17	Z17	X18	Y18	Z18	X19	Y19	Z19	X20	Y20	Z20	X21	Y21	Z21	X22	Y22	Z22	X23	Y23	Z23	X24	Y24	Z24	X25	Y25	Z25	X26	Y26	Z26	X27	Y27	Z27	X28	Y28	Z28	X29	Y29	Z29	X30	Y30	Z30	X31	Y31	Z31	X32	Y32	Z32	X33	Y33	Z33	

36	35.625000000000	813.765641796734	990.904190096097	527.611356371797	1026.709492133202	1413.587999456102	352.889490937455	1113.266574955882	1336.559246293113	520.926933470140	1024.856847334387	1421.016666890009	686.723929739554	1027.386306470264	1475.307484042881	506.661205151890	1038.240658986533	929.339905513922	656.977585562623	1031.293821558242	943.610158196167	379.170943711212	1112.585397968485	751.142594362293	626.087600383546	1052.084509080338	630.823958423715	683.902485156811	1140.480437413304	592.880721971651	606.283516005835	1158.075492745570	502.022036442715	614.220396569827	1069.508799611725	727.439836511692	405.825020769120	982.364761244258	613.952201010418	336.674968573381	1064.573446962178	526.827882690563	396.641206471902	1052.909707090565	440.240448138945	393.300669658177	979.620576607040	385.548910889502	386.137822722000	837.979706462113	353.053918314201	332.490165237408	811.954147521960	228.259608921857	391.511605290016	1132.406497068087	409.954360028175	619.929155100231	1064.071627423897	302.228931894082	679.253351465713	1114.113872074232	210.260214607677	617.234015796709	988.658310162498	42.664389371389	582.216221378717	1158.800419790950	98.990656699058	618.479152067533	1072.036840949432	36.058892230145	656.627354639683	1279.427185960532	49.612721779475	645.631574026579	613.604149590437	171.643663230513	420.505441787922	675.822458956649	126.964323564298	344.027783658864	778.384175370822	133.908300330156	371.635158468334	856.771238592551	33.080511810798	348.610203850496	1038.356484799305	1080.310914349479	209.909841320759	1286.137978310870	1069.127166503317	268.115757926161	894.411369246041	1094.699164777763	793.579797875376	881.327900950371	832.510971523771	781.144075439037	
37	35.636571428571	813.544567876624	992.594708204443	530.554010633993	1026.223339831555	1415.134022973747	355.247032274913	1113.919962588179	1337.400291490697	522.432046703930	1026.988017131546	1421.552645647442	689.166006981091	1028.311811541608	1476.447674440982	509.305063719445	1038.507794573436	930.652841528975	658.723689655624	1030.244581617121	944.677781751238	380.605606016453	1110.698514720514	750.375796663091	629.310985689337	1048.178408452558	630.952872466821	685.921817044712	1136.579535845061	592.220252137791	608.636924825874	1153.069632605615	501.258181618588	616.240406900285	1073.911504864177	731.197326216097	407.651250356274	990.967221288484	615.382321748479	337.926916190279	1076.493718747882	530.389352666041	397.175082705675	1066.314603130809	442.634085734818	393.420771821530	991.607284116083	387.991858330752	386.717196046285	848.290603783895	359.976002971836	334.593671824617	819.495171885717	235.526000749375	393.151381003866	1126.606065604161	409.473172879134	621.635881039264	1057.325395081966	302.106067710802	680.500139131959	1106.864639309849	209.977982257256	618.187665825071	980.675055019640	42.651310129896	582.524013581542	1150.805826935786	99.050047872109	618.891398619619	1064.039452178765	35.976180042651	656.884729995391	1271.412215307211	49.635076452601	645.930756438060	619.759399523961	186.336070728339	424.356301282557	679.118592551560	139.661417685699	346.583474874897	782.668685473054	141.507637455719	372.985930282240	855.736632760327	34.681034251111	347.604176190142	1031.488824755074	1080.255510299109	214.492266671133	1279.056931942194	1058.339003685963	272.034434372161	905.050803761503	1091.868122295789	798.435112239111	901.680528051999	829.290136775299	786.529089216485	
38	35.648142857143	813.183578708375	994.335964909034	533.334243053101	1025.583183002597	1416.619460071799	357.416406815308	1114.452961564775	1338.209609349920	523.746281955135	1029.061489376340	1422.071052762331	691.459487685041	1029.089875420986	1477.590583146246	511.769658717395	1038.561605941603	931.929737808082	660.428838629838	1029.303749288170	945.837110158224	382.090701104265	1108.527992535142	749.582282510934	632.592521935130	1043.885721832458	631.035665863315	687.868329931347	1132.358466707778	591.532297469930	611.014313924706	1147.682229282187	500.495834802558	618.268861159568	1078.010680037261	735.302591619766	409.290862377909	999.136740963388	617.452870517428	338.848561732792	1087.849429630128	534.670872207122	397.335900841942	1079.370713127335	445.868697662676	393.208074696518	1003.604359608154	391.062955684333	386.981886147395	858.881952603812	366.730936831101	336.525308097447	828.017765601226	242.562998392367	394.660457317227	1120.493787615278	409.013371347469	623.308877086077	1050.323821443970	301.962626634650	681.672050122916	1099.463131520858	209.713620557265	619.113625278461	972.645663632400	42.642947402041	582.807323234582	1142.809141525011	99.037509508599	619.275727606607	1055.994292648395	35.893660891023	657.109043251322	1263.368761951540	49.551160168405	646.190668553907	627.498832512286	199.226237910661	428.353761339315	684.223542348939	151.314244284082	349.177075626281	788.521750514111	149.041888930782	374.216708280744	857.143657290407	37.181681614480	346.251561549105	1024.320826035220	1080.246410100363	218.920094605828	1271.151328304057	1046.665805268219	275.549983049234	916.132402733635	1089.203625606706	803.222577893419	922.810880812425	826.547100642902	792.006215086678	
39	35.659714285714	812.706299400234	996.093590904861	535.947064797993	1024.823217471880	1418.036694084489	359.406240148475	1114.869664570239	1338.986679551196	524.889947095381	1031.070591889848	1422.594457512462	693.600515910374	1029.743432063183	1478.731037916112	514.039800850292	1038.424334091642	933.177180476967	662.115133814883	1028.496121962124	947.092810192039	383.670239168816	1106.123086654261	748.827699174792	635.784528876207	1039.348833884477	631.127021517881	689.727609747775	1127.891412837929	590.844719821212	613.339533320655	1142.001780062041	499.757944778021	620.265069290821	1081.774133819442	739.710932252775	410.754285277437	1006.810968561363	620.129184143719	339.452906886028	1098.556768201869	539.613126231819	397.147730974788	1091.984404781425	449.897155553616	392.640497856575	1015.526812257785	394.698689686260	386.909321791764	869.656965260455	373.115653387727	338.208749237157	837.519958711431	249.109118273696	395.942726399652	1114.150012127749	408.592927902949	624.924618779651	1043.137232735222	301.829395392838	682.763499062946	1091.950127062200	209.480185209434	620.003145518693	964.569060812548	42.648713729531	583.072126612917	1134.806341120008	98.975044047820	619.630264063091	1047.904507673117	35.819920003728	657.307490339977	1255.298422827286	49.383414958724	646.412112858545	636.738031062554	209.828589776839	432.268037952719	691.186123302447	161.407940169730	351.653651021632	796.032050620525	156.141957790477	375.234117338382	861.275540088321	40.466483524842	344.617896739507	1016.909930305489	1080.278203139790	223.207269940937	1262.353258864285	1034.133644439954	278.594387168211	927.641925302993	1086.754931648153	807.870307269839	944.650287568854	824.396406938945	797.493424533002	
40	35.671285714286	812.141770414501	997.837836993870	538.401184905944	1023.970844856564	1419.388262451340	361.231422696793	1115.173936288189	1339.741650270344	525.886221067005	1033.005859816302	1423.151099293898	695.584845756636	1030.292934924043	1479.866123613204	516.105998157150	1038.123125612904	934.402510572158	663.790085833812	1027.808886681722	948.434695125846	385.360841631288	1103.525325749278	748.158658144975	638.768042332594	1034.671999396197	631.266701492507	691.486669531223	1123.229983017523	590.175527837437	615.549183060464	1136.092680890052	499.061209304415	622.185806996014	1085.190954560673	744.372755836952	412.057837129098	1013.972947884334	623.350724693707	339.766370413899	1108.577975385491	545.132700321852	396.659030076807	1104.095532115608	454.650564185689	391.733915161360	1027.322386081797	398.815254641749	386.507438162296	880.559393141546	378.939066770069	339.566205134799	847.998394482746	254.932598498059	396.914707686227	1107.635386368530	408.225601576537	626.464308010581	1035.814347595434	301.731189414375	683.766766084915	1084.357776712490	209.288818460744	620.850162459448	956.450412178943	42.674895172285	583.319549052432	1126.795594758618	98.886096394699	619.955084660428	1039.778546124042	35.760941871424	657.484478663025	1247.206333054432	49.160542791401	646.598735826258	647.380048177531	217.815909173488	435.852923206491	700.019615112899	169.533441584198	353.851669125254	805.256330609283	162.460778645329	375.961218633746	868.306732085247	44.294527526190	342.797903691010	1009.312697639436	1080.359159432508	227.376568582878	1252.589485517128	1020.785553082595	281.113440218208	939.551935298756	1084.582280195039	812.315757178970	967.154788474356	822.964935129760	802.889693064663	
41	35.682857142857	811.521579374295	999.544093972950	540.715417083507	1023.045289211823	1420.680706445683	362.910546387478	1115.370280217680	1340.489068552361	526.758768202141	1034.855111550609	1423.766360651455	697.407354307561	1030.754650143987	1480.991916227951	517.965593954286	1037.687965968752	935.609231720260	665.444441962424	1027.195554210254	949.835140613087	387.150087114584	1100.767395422314	747.599295444078	641.458071477863	1029.924659684180	631.478123735763	693.134895309847	1118.407315417132	589.534075432593	617.595245356860	1129.998483971711	498.416201259497	623.991390103175	1088.265675492340	749.234266849781	413.222489600041	1020.639653926823	627.036781795752	339.826581386236	1117.908258170360	551.126505282797	395.939177039016	1115.667849378629	460.040945813256	390.540891361132	1038.959967953088	403.315052650345	385.813208089972	891.563144398416	384.036488359386	340.528476338241	859.439185226820	259.848579241350	397.512160874718	1100.993862961078	407.919245494430	627.911466278096	1028.390315553609	301.684623084907	684.674151898925	1076.711129252971	209.146202642432	621.648013385685	948.298147926051	42.724472674678	583.546972896537	1118.777031516245	98.790916153198	620.250842033923	1031.627130019095	35.720131030487	657.641655312073	1239.099159815423	48.910052992050	646.755198872007	659.325348125351	223.024001378095	438.874429908815	710.701381789108	175.413355945209	355.618572794680	816.210803284852	167.708006386959	376.338840226969	878.291619809124	48.345933576857	340.890349282719	1001.584887944468	1080.504876934782	231.453275226498	1241.783174914504	1006.691830177510	283.070189924234	951.817394148706	1082.750131367515	816.512760555852	990.294231229822	822.385404684660	808.076660435928	
